<svg width="770" height="770" xmlns="http://www.w3.org/2000/svg" stroke="null" style="vector-effect: non-scaling-stroke;" preserveAspectRatio="xMidYMid meet">

 <g stroke="null">
  <title stroke="null">background</title>
  <rect stroke="null" fill="none" id="canvas_background" height="402" width="582" y="-1" x="-1"/>
 </g>
 <g stroke="null">
  <title stroke="null">Layer 1</title>
  <g stroke="null" id="svg_1" fill="#000000" transform="translate(0,770) scale(0.10000000149011612,-0.10000000149011612) ">
   <path fill="#ffffff" id="svg_2" d="m5471.942164,7480.726771c-103.974722,-16.133649 -210.161672,-43.791334 -263.255147,-66.839405c-29.86508,-13.828842 -59.730159,-24.200474 -67.472958,-24.200474c-6.636684,0 -29.86508,-9.219228 -50.881247,-21.895667c-21.016167,-11.524035 -71.897414,-39.18172 -111.71752,-61.077387c-191.357733,-106.021125 -341.789245,-262.748006 -417.005001,-435.608536c-27.652852,-64.534598 -49.775133,-214.347057 -34.289536,-243.157146c5.53057,-11.524035 9.955027,-33.419702 9.955027,-49.553352c0,-17.286053 4.424456,-39.18172 9.955027,-50.705755c5.53057,-10.371632 15.485597,-32.267299 22.122281,-48.400948c6.636684,-16.133649 23.228395,-47.248545 35.39565,-69.144212l23.228395,-39.18172l-28.758966,-25.352878c-23.228395,-21.895667 -40.92622,-26.505281 -108.399178,-25.352878c-193.569961,0 -275.422401,-19.59086 -290.907998,-71.449019c-4.424456,-13.828842 -23.228395,-26.505281 -49.775133,-34.572106c-50.881247,-13.828842 -70.7913,-46.096141 -61.942387,-96.801897c16.591711,-89.887476 164.810995,-172.86053 360.593184,-202.823022c149.325398,-21.895667 330.728104,-36.876913 426.960028,-32.267299l92.913581,3.457211l18.803939,-51.858159c9.955027,-28.810088 29.86508,-80.668247 45.350677,-115.240353c44.244562,-100.259107 152.64374,-455.199396 180.296592,-587.725802c18.803939,-89.887476 24.334509,-157.879284 24.334509,-265.052813c0,-206.280233 -24.334509,-253.528777 -131.627573,-253.528777c-26.546737,0 -37.607878,-5.762018 -37.607878,-17.286053c0,-32.267299 -19.910053,-17.286053 -106.18695,80.668247c-46.456791,54.162966 -115.035862,122.154775 -152.64374,150.964863c-37.607878,28.810088 -77.427984,61.077387 -89.595239,71.449019c-57.517931,49.553352 -259.936804,165.946109 -365.01764,209.737443c-113.929748,47.248545 -252.194006,87.582669 -370.548211,107.173529c-92.913581,14.981246 -426.960028,14.981246 -519.873609,0c-144.900942,-24.200474 -342.895359,-87.582669 -443.551739,-142.898038c-44.244562,-24.200474 -82.958555,-27.657685 -122.778661,-11.524035c-27.652852,11.524035 -127.203117,43.791334 -182.50882,59.924984c-19.910053,5.762018 -54.199589,16.133649 -75.215756,21.895667c-21.016167,6.914421 -57.517931,17.286053 -79.640212,24.200474c-23.228395,5.762018 -56.411817,16.133649 -75.215756,21.895667c-170.341565,50.705755 -373.866553,100.259107 -503.281898,121.002371l-94.019695,16.133649l-160.386539,-82.973054c-119.460319,-62.229791 -173.659908,-96.801897 -213.480014,-138.288424c-29.86508,-31.114895 -50.881247,-58.77258 -48.669019,-62.229791c6.636684,-5.762018 201.312759,93.344686 226.753383,115.240353c14.379483,11.524035 155.962083,13.828842 191.357733,2.304807c11.061141,-3.457211 44.244562,-11.524035 73.003528,-17.286053c86.276897,-17.286053 294.22634,-71.449019 438.021168,-115.240353c75.215756,-23.048071 47.562905,-41.486527 -101.762494,-69.144212c-71.897414,-12.676439 -1116.069088,4.609614 -1130.448571,19.59086c-5.53057,5.762018 5.53057,28.810088 28.758966,54.162966c37.607878,42.638931 47.562905,58.77258 30.971194,49.553352c-5.53057,-2.304807 -27.652852,-13.828842 -51.987361,-24.200474c-23.228395,-11.524035 -81.852441,-59.924984 -130.521459,-108.325932c-77.427984,-77.211037 -85.170783,-88.735072 -70.7913,-103.716318c14.379483,-14.981246 85.170783,-19.59086 418.111115,-26.505281c221.222812,-5.762018 467.886248,-12.676439 548.632574,-17.286053c179.190478,-9.219228 272.104059,9.219228 538.677548,107.173529c60.836273,21.895667 120.566433,42.638931 133.839801,46.096141c30.971194,6.914421 119.460319,-24.200474 123.884775,-43.791334c1.106114,-9.219228 -18.803939,-29.962492 -44.244562,-47.248545c-65.26073,-42.638931 -240.026751,-225.871093 -316.348622,-330.739814c-228.965611,-313.453761 -345.107587,-677.613278 -345.107587,-1072.88769c0,-92.192283 7.742798,-212.04225 16.591711,-267.35762l15.485597,-101.411511l-37.607878,-111.783143c-21.016167,-62.229791 -57.517931,-172.86053 -82.958555,-245.461953c-25.440623,-72.601423 -63.048502,-184.384565 -85.170783,-247.76676c-21.016167,-63.382194 -44.244562,-130.221599 -53.093475,-149.812459c-7.742798,-18.438457 -25.440623,-59.924984 -38.713992,-92.192283c-37.607878,-91.039879 -99.550266,-236.242724 -133.839801,-314.606165c-17.697825,-40.334124 -32.077308,-79.515844 -32.077308,-88.735072c0,-9.219228 -5.53057,-31.114895 -12.167255,-48.400948c-23.228395,-57.620177 -29.86508,-77.211037 -43.138448,-126.764389c-28.758966,-99.106704 17.697825,-187.841776 98.444151,-187.841776c51.987361,0 146.007056,35.72451 216.798356,82.973054c29.86508,19.59086 82.958555,51.858159 116.141976,70.296616c33.183422,19.59086 73.003528,46.096141 88.489125,59.924984c15.485597,13.828842 77.427984,61.077387 138.264258,104.868722c60.836273,42.638931 130.521459,95.649493 154.855969,116.392757c87.383011,76.058633 243.345094,199.365811 252.194006,199.365811c4.424456,0 32.077308,-19.59086 60.836273,-42.638931c70.7913,-57.620177 94.019695,-74.90623 176.97825,-130.221599c38.713992,-25.352878 68.579072,-50.705755 66.366844,-56.467773c-2.212228,-5.762018 -73.003528,-58.77258 -158.174311,-117.54516c-85.170783,-58.77258 -192.463847,-135.983617 -237.814523,-171.708127c-45.350677,-35.72451 -96.231923,-72.601423 -111.71752,-82.973054c-42.032334,-27.657685 -231.177839,-247.76676 -231.177839,-268.510023c0,-13.828842 14.379483,-17.286053 63.048502,-17.286053c34.289536,0 77.427984,4.609614 96.231923,11.524035c18.803939,5.762018 86.276897,29.962492 150.431512,51.858159c64.154616,21.895667 120.566433,40.334124 124.990889,40.334124c4.424456,0 7.742798,-9.219228 7.742798,-21.895667c0,-11.524035 6.636684,-27.657685 15.485597,-34.572106c21.016167,-18.438457 102.868608,11.524035 183.614934,65.687001c33.183422,23.048071 84.064669,55.31537 112.823634,71.449019c50.881247,28.810088 185.827162,142.898038 308.605823,262.748006l61.942387,59.924984l18.803939,-49.553352c51.987361,-144.050442 0,-304.234533 -153.749855,-463.266221c-88.489125,-92.192283 -214.586128,-183.232162 -246.663436,-176.317741c-17.697825,3.457211 -27.652852,20.743264 -42.032334,71.449019c-14.379483,48.400948 -32.077308,49.553352 -76.32187,3.457211c-35.39565,-36.876913 -38.713992,-46.096141 -38.713992,-108.325932c0,-38.029317 -8.848912,-115.240353 -21.016167,-171.708127c-37.607878,-191.298987 -47.562905,-263.900409 -43.138448,-327.282604c3.318342,-58.77258 5.53057,-63.382194 32.077308,-66.839405c28.758966,-3.457211 28.758966,-3.457211 42.032334,121.002371c15.485597,138.288424 24.334509,178.622548 40.92622,184.384565c12.167255,4.609614 54.199589,-121.002371 68.579072,-203.975425c7.742798,-47.248545 11.061141,-51.858159 40.92622,-51.858159c28.758966,0 33.183422,4.609614 36.501764,34.572106c3.318342,31.114895 -8.848912,91.039879 -30.971194,149.812459c-96.231923,253.528777 -97.338037,262.748006 -27.652852,206.280233c44.244562,-34.572106 155.962083,-73.753826 213.480014,-73.753826c67.472958,0 225.647269,-88.735072 321.879192,-178.622548c30.971194,-29.962492 50.881247,-40.334124 66.366844,-34.572106c28.758966,9.219228 33.183422,27.657685 23.228395,85.277861c-8.848912,54.162966 -35.39565,96.801897 -78.534098,130.221599c-27.652852,21.895667 -179.190478,66.839405 -224.541154,66.839405c-26.546737,1.152404 -130.521459,57.620177 -136.05203,74.90623c-3.318342,11.524035 68.579072,40.334124 103.974722,40.334124c11.061141,0 32.077308,10.371632 47.562905,23.048071c15.485597,12.676439 35.39565,23.048071 45.350677,23.048071c8.848912,0 30.971194,16.133649 48.669019,34.572106c17.697825,19.59086 37.607878,34.572106 43.138448,34.572106c13.273369,1.152404 95.125809,118.697564 95.125809,135.983617c0,4.609614 11.061141,32.267299 23.228395,59.924984c18.803939,40.334124 24.334509,74.90623 25.440623,161.336495c0,59.924984 -1.106114,134.831213 -4.424456,164.793705l-5.53057,55.31537l215.692242,3.457211c223.43504,4.609614 319.666964,14.981246 414.792773,46.096141c30.971194,10.371632 64.154616,18.438457 75.215756,18.438457c11.061141,0 40.92622,10.371632 65.26073,23.048071c25.440623,12.676439 50.881247,23.048071 56.411817,23.048071c18.803939,0 213.480014,97.9543 284.271314,142.898038c105.080836,67.991808 299.756911,231.63311 342.895359,289.253287c14.379483,19.59086 45.350677,53.010563 69.685186,73.753826l43.138448,40.334124l150.431512,0c128.309231,0 162.598767,-3.457211 221.222812,-25.352878c96.231923,-35.72451 153.749855,-73.753826 214.586128,-142.898038l50.881247,-59.924984l29.86508,20.743264c30.971194,20.743264 30.971194,20.743264 64.154616,-16.133649c23.228395,-26.505281 38.713992,-34.572106 56.411817,-29.962492c12.167255,3.457211 26.546737,6.914421 32.077308,6.914421c4.424456,0 7.742798,8.066825 7.742798,17.286053c0,21.895667 29.86508,38.029317 126.097003,65.687001c109.505292,32.267299 244.451208,33.419702 298.650797,3.457211c40.92622,-23.048071 42.032334,-23.048071 57.517931,-1.152404c23.228395,33.419702 19.910053,43.791334 -22.122281,73.753826c-40.92622,28.810088 -151.537626,39.18172 -257.724576,21.895667c-32.077308,-4.609614 -58.624045,-4.609614 -58.624045,1.152404c0,9.219228 78.534098,40.334124 136.05203,53.010563c18.803939,4.609614 29.86508,14.981246 29.86508,28.810088c0,34.572106 -27.652852,50.705755 -74.109642,41.486527c-63.048502,-11.524035 -225.647269,-91.039879 -307.499709,-148.660056c-80.746326,-58.77258 -84.064669,-55.31537 -54.199589,50.705755c24.334509,86.430265 109.505292,174.012934 194.676075,200.518215c34.289536,10.371632 79.640212,18.438457 101.762494,18.438457c45.350677,0 67.472958,27.657685 48.669019,61.077387c-8.848912,18.438457 -21.016167,20.743264 -84.064669,13.828842c-124.990889,-12.676439 -256.618462,-94.49709 -301.969139,-188.99418c-28.758966,-59.924984 -32.077308,-61.077387 -76.32187,-20.743264c-96.231923,85.277861 -173.659908,111.783143 -356.168728,119.849968c-69.685186,3.457211 -119.460319,10.371632 -119.460319,17.286053c0,5.762018 8.848912,25.352878 19.910053,41.486527c42.032334,63.382194 146.007056,326.1302 168.129337,422.932097c26.546737,117.54516 55.305703,299.624919 55.305703,348.025867c0,40.334124 3.318342,49.553352 21.016167,49.553352c44.244562,0 173.659908,266.205216 211.267786,437.913343c5.53057,21.895667 15.485597,61.077387 22.122281,86.430265c53.093475,192.45139 94.019695,482.857081 106.18695,760.586332c7.742798,163.641302 -24.334509,486.314291 -61.942387,622.297908c-6.636684,25.352878 -16.591711,65.687001 -21.016167,88.735072c-5.53057,23.048071 -16.591711,55.31537 -26.546737,70.296616c-12.167255,19.59086 -13.273369,32.267299 -5.53057,47.248545c8.848912,16.133649 3.318342,28.810088 -26.546737,62.229791c-21.016167,24.200474 -51.987361,63.382194 -69.685186,88.735072c-89.595239,126.764389 -227.859497,224.718689 -353.9565,251.22397c-30.971194,5.762018 18.803939,13.828842 226.753383,36.876913c94.019695,9.219228 192.463847,24.200474 219.010584,31.114895c38.713992,11.524035 49.775133,11.524035 57.517931,-1.152404c6.636684,-12.676439 38.713992,-14.981246 155.962083,-9.219228c191.357733,9.219228 288.69577,35.72451 332.940332,93.344686c33.183422,41.486527 18.803939,106.021125 -34.289536,157.879284c-28.758966,28.810088 -197.994417,137.136021 -212.3739,137.136021c-6.636684,0 -26.546737,8.066825 -45.350677,18.438457c-49.775133,26.505281 -176.97825,73.753826 -199.100531,73.753826c-33.183422,0 -29.86508,16.133649 26.546737,103.716318c29.86508,47.248545 64.154616,110.630739 77.427984,140.593231c12.167255,29.962492 28.758966,61.077387 37.607878,67.991808c8.848912,6.914421 15.485597,20.743264 15.485597,28.810088c0,9.219228 8.848912,38.029317 21.016167,65.687001c149.325398,356.092692 33.183422,619.993101 -278.740743,633.821944c-49.775133,2.304807 -115.035862,0 -146.007056,-4.609614zm110.611406,-194.756197c3.318342,-6.914421 -2.212228,-25.352878 -14.379483,-43.791334c-23.228395,-35.72451 -69.685186,-135.983617 -108.399178,-239.699935c-15.485597,-39.18172 -42.032334,-85.277861 -60.836273,-102.563915c-17.697825,-18.438457 -32.077308,-40.334124 -32.077308,-48.400948c0,-8.066825 -19.910053,-38.029317 -44.244562,-65.687001c-24.334509,-27.657685 -44.244562,-56.467773 -44.244562,-64.534598c0,-33.419702 -129.415345,-224.718689 -180.296592,-267.35762c-60.836273,-49.553352 -89.595239,-53.010563 -234.496181,-31.114895c-42.032334,5.762018 -98.444151,13.828842 -123.884775,18.438457l-47.562905,6.914421l0,95.649493c0,240.852339 69.685186,377.988359 276.528515,548.544082c76.32187,63.382194 158.174311,109.478336 252.194006,142.898038c139.370372,49.553352 345.107587,78.36344 361.699298,50.705755zm63.048502,-918.465616c6.636684,-8.066825 23.228395,-14.981246 37.607878,-14.981246c15.485597,0 26.546737,-6.914421 26.546737,-17.286053c0,-9.219228 6.636684,-13.828842 15.485597,-10.371632c32.077308,12.676439 26.546737,-16.133649 -8.848912,-51.858159c-21.016167,-20.743264 -39.820106,-32.267299 -44.244562,-26.505281c-3.318342,5.762018 1.106114,17.286053 9.955027,25.352878c8.848912,8.066825 16.591711,19.59086 16.591711,25.352878c0,18.438457 -88.489125,-40.334124 -163.704881,-109.478336c-78.534098,-71.449019 -116.141976,-87.582669 -284.271314,-119.849968c-120.566433,-23.048071 -441.339511,-24.200474 -638.227813,0c-110.611406,12.676439 -133.839801,12.676439 -155.962083,-1.152404c-22.122281,-13.828842 -30.971194,-13.828842 -65.26073,1.152404c-30.971194,13.828842 -38.713992,23.048071 -34.289536,40.334124c3.318342,16.133649 -7.742798,33.419702 -40.92622,63.382194c-43.138448,38.029317 -45.350677,41.486527 -24.334509,53.010563c14.379483,8.066825 111.71752,12.676439 261.042919,12.676439c146.007056,0 240.026751,4.609614 244.451208,11.524035c3.318342,6.914421 56.411817,11.524035 120.566433,11.524035c225.647269,0 519.873609,57.620177 658.137867,129.069196c43.138448,21.895667 51.987361,24.200474 55.305703,9.219228c2.212228,-9.219228 8.848912,-24.200474 14.379483,-31.114895zm462.355678,-201.670618c42.032334,-39.18172 42.032334,-61.077387 -1.106114,-84.125458c-51.987361,-28.810088 -66.366844,-19.59086 -70.7913,43.791334c-2.212228,31.114895 -8.848912,62.229791 -15.485597,69.144212c-6.636684,6.914421 -12.167255,19.59086 -12.167255,28.810088c0,18.438457 49.775133,-9.219228 99.550266,-57.620177zm-852.813941,-524.343608c94.019695,-58.77258 232.283953,-210.889847 259.936804,-285.796076c77.427984,-217.804268 107.293064,-528.953222 85.170783,-872.369475c-7.742798,-116.392757 -17.697825,-242.004742 -24.334509,-280.034059c-5.53057,-38.029317 -15.485597,-102.563915 -22.122281,-144.050442c-32.077308,-221.261478 -101.762494,-518.58159 -121.672547,-518.58159c-5.53057,0 -9.955027,19.59086 -9.955027,43.791334c0,54.162966 -35.39565,255.833584 -64.154616,365.31192c-45.350677,171.708127 -121.672547,343.416253 -217.90447,494.381116c-27.652852,41.486527 -49.775133,81.820651 -49.775133,87.582669c0,6.914421 32.077308,11.524035 70.7913,11.524035c55.305703,0 84.064669,6.914421 128.309231,31.114895c69.685186,38.029317 94.019695,72.601423 117.248091,165.946109c17.697825,73.753826 15.485597,192.45139 -6.636684,269.662427c-56.411817,200.518215 -97.338037,309.996551 -188.03939,508.209958c-69.685186,153.26967 -73.003528,165.946109 -47.562905,165.946109c11.061141,0 51.987361,-19.59086 90.701353,-42.638931zm-1254.333346,-609.621469c43.138448,-9.219228 95.125809,-20.743264 116.141976,-26.505281c21.016167,-5.762018 50.881247,-14.981246 66.366844,-18.438457c30.971194,-8.066825 37.607878,-11.524035 154.855969,-61.077387c45.350677,-19.59086 102.868608,-38.029317 127.203117,-42.638931c69.685186,-12.676439 105.080836,-36.876913 199.100531,-137.136021c48.669019,-51.858159 117.248091,-122.154775 152.64374,-154.422074l64.154616,-58.77258l-38.713992,-17.286053c-22.122281,-9.219228 -58.624045,-32.267299 -80.746326,-50.705755c-76.32187,-62.229791 -277.634629,-129.069196 -390.458264,-129.069196c-73.003528,0 -88.489125,-8.066825 -88.489125,-46.096141c0,-26.505281 5.53057,-32.267299 34.289536,-36.876913c70.7913,-11.524035 265.467375,4.609614 314.136393,24.200474c12.167255,5.762018 36.501764,16.133649 53.093475,23.048071c16.591711,6.914421 43.138448,12.676439 58.624045,12.676439c26.546737,0 27.652852,-2.304807 21.016167,-46.096141c-19.910053,-122.154775 -96.231923,-282.338866 -162.598767,-339.959042c-58.624045,-51.858159 -92.913581,-63.382194 -243.345094,-80.668247l-146.007056,-16.133649l-58.624045,-61.077387c-32.077308,-33.419702 -58.624045,-64.534598 -58.624045,-71.449019c0,-5.762018 24.334509,-6.914421 56.411817,-3.457211c30.971194,4.609614 79.640212,2.304807 108.399178,-3.457211c27.652852,-5.762018 108.399178,-16.133649 178.084364,-23.048071c69.685186,-6.914421 167.023223,-17.286053 215.692242,-21.895667c76.32187,-9.219228 91.807467,-8.066825 109.505292,8.066825c11.061141,10.371632 38.713992,19.59086 60.836273,19.59086c45.350677,0 38.713992,-27.657685 71.897414,265.052813c9.955027,88.735072 23.228395,186.689372 28.758966,216.651864c6.636684,29.962492 11.061141,107.173529 11.061141,169.403319c0,63.382194 3.318342,115.240353 8.848912,115.240353c4.424456,0 15.485597,-13.828842 25.440623,-32.267299c9.955027,-17.286053 44.244562,-74.90623 75.215756,-129.069196c137.158144,-237.395128 211.267786,-522.038801 211.267786,-818.206509c0,-443.67536 -163.704881,-852.778615 -461.249564,-1153.555937c-188.03939,-191.298987 -433.596712,-333.044621 -694.639631,-401.03643c-142.688714,-36.876913 -188.03939,-41.486527 -376.078781,-41.486527c-257.724576,1.152404 -297.544683,10.371632 -352.850386,87.582669c-23.228395,31.114895 -46.456791,56.467773 -50.881247,56.467773c-5.53057,0 -16.591711,6.914421 -24.334509,16.133649c-27.652852,28.810088 -106.18695,64.534598 -141.5826,64.534598c-18.803939,0 -36.501764,6.914421 -39.820106,16.133649c-3.318342,8.066825 13.273369,56.467773 36.501764,106.021125c65.26073,138.288424 113.929748,293.862901 148.219284,471.333045c19.910053,97.9543 18.803939,403.341237 0,455.199396c-26.546737,72.601423 -56.411817,144.050442 -67.472958,161.336495c-6.636684,9.219228 -18.803939,33.419702 -27.652852,54.162966c-8.848912,20.743264 -23.228395,41.486527 -30.971194,46.096141c-7.742798,4.609614 -26.546737,27.657685 -40.92622,49.553352c-29.86508,43.791334 -130.521459,149.812459 -142.688714,149.812459c-13.273369,0 -34.289536,-26.505281 -34.289536,-43.791334c0,-9.219228 22.122281,-41.486527 48.669019,-72.601423c68.579072,-79.515844 106.18695,-221.261478 106.18695,-399.884026c0,-163.641302 -37.607878,-252.376374 -189.145505,-445.980168c-66.366844,-85.277861 -279.846858,-305.386936 -392.670492,-405.646044c-274.316287,-242.004742 -725.610824,-527.800818 -779.810413,-492.076309c-18.803939,11.524035 0,117.54516 50.881247,292.710498c9.955027,34.572106 23.228395,72.601423 28.758966,82.973054c5.53057,11.524035 9.955027,28.810088 9.955027,38.029317c0,9.219228 4.424456,26.505281 9.955027,38.029317c5.53057,10.371632 19.910053,48.400948 32.077308,82.973054c27.652852,79.515844 98.444151,270.81483 118.354205,316.910972c7.742798,19.59086 19.910053,53.010563 28.758966,74.90623c7.742798,21.895667 27.652852,72.601423 45.350677,112.935546c16.591711,39.18172 30.971194,74.90623 30.971194,78.36344c0,4.609614 14.379483,39.18172 32.077308,78.36344c18.803939,39.18172 38.713992,104.868722 44.244562,146.355249c6.636684,40.334124 22.122281,115.240353 34.289536,164.793705c26.546737,109.478336 29.86508,225.871093 6.636684,225.871093c-8.848912,0 -23.228395,2.304807 -30.971194,5.762018c-12.167255,4.609614 -22.122281,-12.676439 -36.501764,-65.687001c-28.758966,-101.411511 -38.713992,-111.783143 -58.624045,-64.534598c-12.167255,26.505281 -17.697825,78.36344 -17.697825,170.555723l-1.106114,132.526406l107.293064,224.718689c221.222812,464.418624 413.686659,724.861823 664.774551,901.179563c95.125809,66.839405 227.859497,140.593231 306.393595,169.403319c21.016167,8.066825 48.669019,19.59086 60.836273,25.352878c26.546737,12.676439 136.05203,42.638931 204.631101,57.620177c146.007056,32.267299 436.915054,33.419702 580.709882,3.457211zm1380.430349,-2605.58439c-7.742798,-2.304807 -23.228395,-2.304807 -33.183422,0c-11.061141,3.457211 -4.424456,5.762018 13.273369,5.762018c18.803939,0 26.546737,-2.304807 19.910053,-5.762018zm-2315.096731,-395.274412c0,-5.762018 8.848912,-11.524035 21.016167,-11.524035c29.86508,0 89.595239,-24.200474 89.595239,-35.72451c0,-17.286053 -30.971194,-11.524035 -84.064669,12.676439c-44.244562,21.895667 -65.26073,46.096141 -37.607878,46.096141c6.636684,0 11.061141,-4.609614 11.061141,-11.524035zm-471.20459,-443.67536c-4.424456,-9.219228 -15.485597,-17.286053 -25.440623,-17.286053c-15.485597,1.152404 -14.379483,3.457211 3.318342,17.286053c27.652852,21.895667 29.86508,21.895667 22.122281,0zm847.283371,-66.839405c0,-20.743264 -5.53057,-44.943738 -11.061141,-54.162966c-7.742798,-12.676439 -11.061141,0 -11.061141,43.791334c0,38.029317 4.424456,58.77258 11.061141,54.162966c6.636684,-3.457211 11.061141,-24.200474 11.061141,-43.791334z"/>
   <path fill="#ffffff" id="svg_3" d="m4253.004469,4868.22796c-14.379483,-2.304807 -39.820106,-23.048071 -58.624045,-46.096141c-27.652852,-34.572106 -33.183422,-51.858159 -33.183422,-100.259107c1.106114,-61.077387 26.546737,-127.916792 57.517931,-148.660056c28.758966,-18.438457 75.215756,9.219228 75.215756,43.791334c0,16.133649 -4.424456,32.267299 -11.061141,35.72451c-16.591711,10.371632 -13.273369,70.296616 4.424456,85.277861c8.848912,8.066825 40.92622,13.828842 71.897414,14.981246c42.032334,0 70.7913,-9.219228 122.778661,-39.18172c66.366844,-36.876913 68.579072,-38.029317 84.064669,-16.133649c34.289536,49.553352 0,111.783143 -71.897414,130.221599c-15.485597,3.457211 -40.92622,12.676439 -56.411817,20.743264c-27.652852,14.981246 -140.476486,26.505281 -184.721048,19.59086z"/>
   <path fill="#ffffff" id="svg_4" d="m3410.145554,4312.769457c-14.379483,-12.676439 -34.289536,-23.048071 -44.244562,-23.048071c-11.061141,0 -33.183422,-21.895667 -49.775133,-48.400948c-55.305703,-87.582669 -49.775133,-221.261478 9.955027,-288.100883c33.183422,-36.876913 37.607878,-38.029317 66.366844,-16.133649c21.016167,14.981246 21.016167,17.286053 1.106114,63.382194c-24.334509,55.31537 -18.803939,129.069196 12.167255,164.793705c74.109642,85.277861 181.402706,81.820651 299.756911,-10.371632c35.39565,-27.657685 37.607878,-27.657685 58.624045,-8.066825c11.061141,10.371632 21.016167,25.352878 21.016167,32.267299c0,6.914421 -29.86508,44.943738 -66.366844,85.277861l-66.366844,71.449019l-108.399178,0c-89.595239,-1.152404 -111.71752,-4.609614 -133.839801,-23.048071z"/>
  </g>
 </g>
</svg>